<svg xmlns="http://www.w3.org/2000/svg" version="1.1" xmlns:xlink="http://www.w3.org/1999/xlink" xmlns:svgjs="http://svgjs.dev/svgjs" width="1000" height="623" viewBox="0 0 1000 623"><g transform="matrix(1,0,0,1,-0.6060606060606233,0.25222672064785456)"><svg viewBox="0 0 396 247" data-background-color="#ffffff" preserveAspectRatio="xMidYMid meet" height="623" width="1000" xmlns="http://www.w3.org/2000/svg" xmlns:xlink="http://www.w3.org/1999/xlink"><g id="tight-bounds" transform="matrix(1,0,0,1,0.2400000000000091,-0.09999999999999432)"><svg viewBox="0 0 395.52 247.2" height="247.2" width="395.52"><g><svg></svg></g><g><svg viewBox="0 0 395.52 247.2" height="247.2" width="395.52"><g transform="matrix(1,0,0,1,75.54432000000001,99.62430470628638)"><svg viewBox="0 0 244.43135999999996 47.95139058742723" height="47.95139058742723" width="244.43135999999996"><g><svg viewBox="0 0 244.43135999999996 47.95139058742723" height="47.95139058742723" width="244.43135999999996"><g><svg viewBox="0 0 244.43135999999996 47.95139058742723" height="47.95139058742723" width="244.43135999999996"><g><svg viewBox="0 0 244.43135999999996 47.95139058742723" height="47.95139058742723" width="244.43135999999996"><g id="textblocktransform"><svg viewBox="0 0 244.43135999999996 47.95139058742723" height="47.95139058742723" width="244.43135999999996" id="textblock"><g><svg viewBox="0 0 244.43135999999996 30.390710628108305" height="30.390710628108305" width="244.43135999999996"><g transform="matrix(1,0,0,1,0,0)"><svg width="244.43135999999996" viewBox="1.4500000476837158 -33.25 271.42999267578125 33.75" height="30.390710628108305" data-palette-color="#729343"><path d="M23.45-32.75L13.8-14.15 13.8 0 11.1 0 11.1-14.15 1.45-32.75 4.75-32.75 12.4-17 12.5-17 20.15-32.75 23.45-32.75ZM39.25 0L33.75 0 33.75-6.05 39.25-6.05 39.25 0ZM52-16.7L52-16.7Q52-20.6 52.5-23.45L52.5-23.45Q53-26.3 54.1-28.6L54.1-28.6Q56.35-33.25 62.5-33.25L62.5-33.25Q69.5-33.2 71.7-26.7L71.7-26.7Q73-22.95 73-17.88 73-12.8 72.5-9.8 72-6.8 70.9-4.4L70.9-4.4Q68.59 0.5 62.5 0.5L62.5 0.5Q56.5 0.5 54.15-4.4L54.15-4.4Q52-8.85 52-16.7ZM70.05-16.3L70.05-16.3Q70.05-19 69.92-20.65 69.8-22.3 69.34-24.3 68.9-26.3 68.12-27.6 67.34-28.9 65.92-29.78 64.5-30.65 62.5-30.65 60.5-30.65 59.07-29.78 57.65-28.9 56.87-27.6 56.1-26.3 55.65-24.3L55.65-24.3Q54.95-21.2 54.95-17.43 54.95-13.65 55.22-11.33 55.5-9 56.25-6.75L56.25-6.75Q57.8-2.1 62.5-2.1L62.5-2.1Q67.3-2.1 68.8-6.8L68.8-6.8Q70.09-10.8 70.05-16.3ZM89.24 0L83.74 0 83.74-6.05 89.24-6.05 89.24 0ZM109.59 0L102.99 0 102.99-32.75 109.69-32.75Q113.39-32.75 115.77-32.02 118.14-31.3 119.79-29.45 121.44-27.6 122.17-24.43 122.89-21.25 122.89-16.38 122.89-11.5 122.09-8.28 121.29-5.05 119.54-3.25 117.79-1.45 115.44-0.73 113.09 0 109.59 0L109.59 0ZM115.57-3.6Q117.69-4.7 118.82-7.73 119.94-10.75 119.94-16.38 119.94-22 118.84-25.03 117.74-28.05 115.64-29.15 113.54-30.25 109.69-30.25L109.69-30.25 105.74-30.25 105.74-2.5 109.59-2.5Q113.44-2.5 115.57-3.6ZM139.24 0L133.74 0 133.74-6.05 139.24-6.05 139.24 0ZM153.74 0L150.84 0 160.24-32.75 165.04-32.75 174.09 0 171.14 0 169.09-7.55 155.84-7.55 153.74 0ZM156.54-10.05L168.44-10.05 163.04-30.25 162.19-30.25 156.54-10.05ZM189.23 0L183.73 0 183.73-6.05 189.23-6.05 189.23 0ZM230.08 0L227.38 0 227.38-32.75 230.03-32.75 237.08-14.4 237.83-14.4 244.88-32.75 247.53-32.75 247.53 0 244.83 0 244.83-25.4 244.63-25.4 239.38-11.85 235.53-11.85 230.28-25.45 230.08-25.45 230.08 0ZM259.58 0L252.98 0 252.98-32.75 259.68-32.75Q263.38-32.75 265.75-32.02 268.13-31.3 269.78-29.45 271.43-27.6 272.15-24.43 272.88-21.25 272.88-16.38 272.88-11.5 272.08-8.28 271.28-5.05 269.53-3.25 267.78-1.45 265.43-0.73 263.08 0 259.58 0L259.58 0ZM265.55-3.6Q267.68-4.7 268.8-7.73 269.93-10.75 269.93-16.38 269.93-22 268.83-25.03 267.73-28.05 265.63-29.15 263.53-30.25 259.68-30.25L259.68-30.25 255.73-30.25 255.73-2.5 259.58-2.5Q263.43-2.5 265.55-3.6Z" opacity="1" transform="matrix(1,0,0,1,0,0)" fill="#729343" class="wordmark-text-0" data-fill-palette-color="primary" id="text-0"></path></svg></g></svg></g><g transform="matrix(1,0,0,1,0,37.5652280303496)"><svg viewBox="0 0 244.43135999999996 10.386162557077624" height="10.386162557077624" width="244.43135999999996"><g transform="matrix(1,0,0,1,0,0)"><svg width="244.43135999999996" viewBox="2.450000047683716 -32.349998474121094 788.3099975585938 33.5" height="10.386162557077624" data-palette-color="#096a2e"><path d="M2.45 0.55L2.8-2.15Q5.05-2.6 5.8-3.48 6.55-4.35 6.55-6.45L6.55-6.45 6.6-26.65Q6.6-28.25 6.23-28.8 5.85-29.35 4.75-29.35L4.75-29.35 3.15-29.25 2.95-29.55 3.35-32.05 6.4-32Q7.4-31.95 9.05-31.95L9.05-31.95Q10.55-31.95 15.35-32.35L15.35-32.35 15.15-29.65Q13.7-29.4 13.1-29.08 12.5-28.75 12.28-28 12.05-27.25 11.95-25.55L11.95-25.55 11.65-17.85 19.2-17.8Q22-17.8 25.95-18.2L25.95-18.2 26-26.65Q26-28.25 25.63-28.8 25.25-29.35 24.15-29.35L24.15-29.35Q23.45-29.35 22.55-29.25L22.55-29.25 22.35-29.55 22.7-32.05 24.1-32 28.25-31.95Q29.75-31.95 34.85-32.35L34.85-32.35 34.6-29.65Q32.75-29.4 32.13-28.85 31.5-28.3 31.45-26.85L31.45-26.85Q31.15-21.9 30.98-15.8 30.8-9.7 30.8-6L30.8-6Q30.8-4.05 31.25-3.35 31.7-2.65 32.95-2.65L32.95-2.65Q33.5-2.65 35-2.8L35-2.8 35.2-2.55 34.75 0.15Q34.1 0.15 33.7 0.1L33.7 0.1Q30.1 0 28.1 0L28.1 0 21.8 0.1 22.25-2.6Q23.8-2.65 24.58-3.05 25.35-3.45 25.65-4.48 25.95-5.5 25.95-7.6L25.95-7.6 25.95-14.65 19.3-14.7Q18.15-14.7 16.05-14.55 13.95-14.4 11.55-14.2L11.55-14.2 11.4-6.05Q11.4-4 11.8-3.33 12.2-2.65 13.45-2.65L13.45-2.65Q13.9-2.65 15.55-2.8L15.55-2.8 15.7-2.55 15.25 0.15Q14.45 0.1 13 0.05 11.55 0 10.2 0L10.2 0Q8.15 0 5.6 0.18 3.05 0.35 2.45 0.55L2.45 0.55ZM39.85 0.4L40.1-2.05Q41.85-2.25 42.5-2.98 43.15-3.7 43.15-5.4L43.15-5.4 43.2-20.55Q43.2-21.8 42.92-22.23 42.65-22.65 41.8-22.65L41.8-22.65 40.5-22.6 40.3-22.85 40.65-25.05Q41.35-25.05 43.32-25 45.3-24.95 47.6-24.95L47.6-24.95Q56.25-24.95 60.05-25.4L60.05-25.4 60.3-25.1Q60.2-24.5 59.85-22.45 59.5-20.4 59.35-18.1L59.35-18.1 56.15-17.9Q56.15-18.05 56.2-18.53 56.25-19 56.25-19.5L56.25-19.5Q56.25-20.7 55.9-21.2 55.55-21.7 54.45-21.88 53.35-22.05 50.75-22.05L50.75-22.05Q49.6-22.05 49.12-21.95 48.65-21.85 48.5-21.6 48.35-21.35 48.35-20.7L48.35-20.7 48.05-14.25 51.95-14.2Q52.85-14.2 54.57-14.38 56.3-14.55 56.85-14.6L56.85-14.6 57.1-14.25 56.5-11.2Q55.95-11.2 54.37-11.25 52.8-11.3 51.05-11.3L51.05-11.3Q49.75-11.3 47.9-11.05L47.9-11.05Q47.8-7.85 47.8-5.1L47.8-5.1Q47.8-4 47.97-3.53 48.15-3.05 48.7-2.9 49.25-2.75 50.6-2.75L50.6-2.75Q53.5-2.75 54.77-3.05 56.05-3.35 56.6-4.25 57.15-5.15 57.5-7.3L57.5-7.3 60.4-7.5 60.7-7.2Q60.55-6.6 60.17-4.5 59.8-2.4 59.6-0.1L59.6-0.1 59.2 0.25Q57.9 0.2 53.67 0.1 49.45 0 46.5 0L46.5 0Q44.3 0 42.35 0.18 40.4 0.35 39.85 0.4L39.85 0.4ZM77.3 0.3L77.15 0.05 77.3-2.1Q79.4-2.3 80.02-2.55 80.65-2.8 80.65-3.55L80.65-3.55Q80.65-4.2 80.35-5L80.35-5 79.4-8.25Q78.35-8.3 75.45-8.3L75.45-8.3Q73.9-8.3 71.4-8.05L71.4-8.05 70.2-4.85Q69.95-3.85 69.95-3.6L69.95-3.6Q69.95-2.85 70.42-2.55 70.9-2.25 72.05-2.25L72.05-2.25 73.9-2.25 74.1-2 73.8 0.25Q73.25 0.2 71.4 0.1 69.55 0 67.9 0L67.9 0Q66.25 0 64.9 0.05 63.55 0.1 63.1 0.1L63.1 0.1 63.4-2.3Q64.4-2.45 65.02-3.03 65.65-3.6 66.2-5L66.2-5 73.75-24.75 79.05-25.4 79.5-25.25Q80.1-23.05 82.05-16.23 84-9.4 85.55-5L85.55-5Q86-3.55 86.72-2.98 87.45-2.4 89-2.25L89-2.25 89.15-2 88.85 0.1Q88.35 0.1 86.92 0.05 85.5 0 84 0L84 0Q81.9 0 79.87 0.13 77.85 0.25 77.3 0.3L77.3 0.3ZM72.3-11.05L75.4-11.05Q77.35-11.05 78.7-11.2L78.7-11.2 76.05-20.2 75.55-20.2 72.3-11.05ZM110.94 0.6Q108.39 0.6 106.49-3L106.49-3 102.69-10 99.69-10 99.59-5.35Q99.59-3.95 99.79-3.35 99.99-2.75 100.57-2.55 101.14-2.35 102.54-2.3L102.54-2.3 102.69-2.1 102.24 0.15Q101.54 0.1 99.79 0.08 98.04 0.05 96.49 0.05L96.49 0.05Q95.04 0.05 93.57 0.13 92.09 0.2 91.64 0.25L91.64 0.25 91.99-2.2Q93.74-2.45 94.34-3.05 94.94-3.65 94.94-5.35L94.94-5.35 94.99-20.7Q94.99-21.85 94.69-22.25 94.39-22.65 93.64-22.65L93.64-22.65 92.19-22.6 91.99-22.85 92.34-25.05Q92.89-25.05 94.39-25 95.89-24.95 97.34-24.95L97.34-24.95Q98.94-24.95 100.72-25.03 102.49-25.1 103.19-25.15L103.19-25.15Q107.64-25.15 110.09-23.43 112.54-21.7 112.54-18.6L112.54-18.6Q112.54-16.3 111.07-14.38 109.59-12.45 106.84-11.15L106.84-11.15 110.69-5.35Q111.89-3.55 112.97-2.78 114.04-2 115.44-2L115.44-2 115.69-1.65 115.39 0.2 110.94 0.6ZM103.59-12.8Q107.39-14.25 107.39-17.85L107.39-17.85Q107.39-20.1 105.79-21.2 104.19-22.3 100.84-22.3L100.84-22.3Q100.44-22.3 100.29-22.13 100.14-21.95 100.14-21.4L100.14-21.4Q99.79-15.65 99.79-13.2L99.79-13.2 103.59-12.8ZM131.89 0.45L132.19-2Q133.79-2.25 134.49-2.63 135.19-3 135.44-3.7 135.69-4.4 135.69-5.8L135.69-5.8 135.69-7.15Q135.69-8.2 135.46-9.08 135.24-9.95 134.54-11.25L134.54-11.25 130.59-18.55Q129.49-20.65 128.61-21.48 127.74-22.3 125.79-22.6L125.79-22.6 125.64-22.8 125.99-25.05Q126.54-25.05 128.04-25 129.54-24.95 131.04-24.95L131.04-24.95Q132.44-24.95 134.56-25.08 136.69-25.2 137.39-25.25L137.39-25.25 137.59-24.9 137.39-22.9Q135.84-22.8 135.29-22.53 134.74-22.25 134.74-21.6L134.74-21.6Q134.74-21.15 135.84-18.82 136.94-16.5 137.89-14.55L137.89-14.55 138.54-13.15 138.89-13.15 142.54-20Q143.19-21.15 143.19-21.85L143.19-21.85Q143.19-22.8 140.94-22.85L140.94-22.85 140.84-23 141.09-25.15 142.74-25.1Q144.39-24.95 146.34-24.95L146.34-24.95Q147.74-24.95 148.89-25 150.04-25.05 150.44-25.1L150.44-25.1 150.59-24.8 150.29-22.7Q148.59-22.2 147.64-21.23 146.69-20.25 145.14-17.65L145.14-17.65 141.19-10.75Q140.64-9.7 140.51-8.55 140.39-7.4 140.39-4.7L140.39-4.7Q140.39-3.4 140.79-2.9 141.19-2.4 142.29-2.4L142.29-2.4Q142.99-2.4 143.56-2.45 144.14-2.5 144.34-2.5L144.34-2.5 144.44-2.3 144.04 0.15Q143.34 0.15 141.46 0.08 139.59 0 137.74 0L137.74 0Q136.34 0 134.41 0.18 132.49 0.35 131.89 0.45L131.89 0.45ZM162.69 0.45Q159.13 0.45 156.49-1.05 153.84-2.55 152.41-5.3 150.99-8.05 150.99-11.75L150.99-11.75Q150.99-15.75 152.71-18.85 154.44-21.95 157.49-23.68 160.53-25.4 164.49-25.4L164.49-25.4Q169.94-25.4 173.13-22.15 176.34-18.9 176.34-13.3L176.34-13.3Q176.34-9.3 174.59-6.18 172.84-3.05 169.74-1.3 166.63 0.45 162.69 0.45L162.69 0.45ZM163.78-2.55Q166.99-2.55 168.88-4.9 170.78-7.25 170.78-11.35L170.78-11.35Q170.78-16.4 168.78-19.2 166.78-22 163.28-22L163.28-22Q160.13-22 158.31-19.68 156.49-17.35 156.49-13.25L156.49-13.25Q156.49-8.2 158.44-5.38 160.38-2.55 163.78-2.55L163.78-2.55ZM191.78 0.45Q182.43 0.45 182.43-8L182.43-8 182.43-20.55Q182.43-21.8 182.13-22.23 181.83-22.65 180.98-22.65L180.98-22.65 179.68-22.6 179.58-22.75 179.93-25.05Q180.48-25.05 182.08-25 183.68-24.95 185.43-24.95L185.43-24.95Q186.53-24.95 188.08-25.08 189.63-25.2 190.13-25.25L190.13-25.25 189.88-22.8Q188.53-22.65 188.06-22.2 187.58-21.75 187.48-20.7L187.48-20.7 187.18-9.3Q187.18-6.15 188.66-4.45 190.13-2.75 192.83-2.75L192.83-2.75Q198.43-2.75 198.43-8.2L198.43-8.2Q198.43-11.25 198.36-15.13 198.28-19 198.23-20.55L198.23-20.55Q198.18-21.85 197.93-22.25 197.68-22.65 196.88-22.65L196.88-22.65 195.38-22.6 195.28-22.75 195.63-25.05Q196.13-25.05 197.56-25 198.98-24.95 200.38-24.95L200.38-24.95Q201.63-24.95 203.08-25.05 204.53-25.15 204.98-25.2L204.98-25.2 204.78-22.85Q203.18-22.55 202.71-22.18 202.23-21.8 202.23-20.8L202.23-20.8 202.23-8.45Q202.23-4.15 199.53-1.85 196.83 0.45 191.78 0.45L191.78 0.45ZM218.13 0.55L218.43-2.15Q220.73-2.6 221.5-3.48 222.28-4.35 222.28-6.45L222.28-6.45 222.33-26.65Q222.33-28.25 221.95-28.8 221.58-29.35 220.48-29.35L220.48-29.35 218.53-29.25 218.38-29.55 218.73-32.05 222.08-32Q223.18-31.95 225.13-31.95L225.13-31.95Q226.48-31.95 231.48-32.35L231.48-32.35 231.23-29.65Q229.23-29.4 228.53-28.83 227.83-28.25 227.78-26.85L227.78-26.85Q227.53-21.65 227.33-15.53 227.13-9.4 227.13-6.05L227.13-6.05Q227.13-4 227.53-3.33 227.93-2.65 229.18-2.65L229.18-2.65Q229.98-2.65 231.63-2.8L231.63-2.8 231.78-2.55 231.33 0.15Q230.38 0.15 229.83 0.1L229.83 0.1 224.43 0Q221.58 0 218.13 0.55L218.13 0.55ZM256.77 0.45Q256.12 0.35 254.1 0.18 252.07 0 250.67 0L250.67 0Q249.32 0 247.7 0.18 246.07 0.35 245.57 0.4L245.57 0.4 245.82-2.05Q247.62-2.35 248.25-3.05 248.87-3.75 248.87-5.35L248.87-5.35 248.87-20.55Q248.87-21.75 248.6-22.2 248.32-22.65 247.52-22.65L247.52-22.65Q247.12-22.65 246.72-22.6 246.32-22.55 246.17-22.55L246.17-22.55 245.97-22.85 246.32-25.05Q246.87-25.05 248.32-25 249.77-24.95 251.22-24.95L251.22-24.95Q253.02-24.95 254.97-25.03 256.92-25.1 257.67-25.15L257.67-25.15Q263.87-25.15 267.45-22.03 271.02-18.9 271.02-13.45L271.02-13.45Q271.02-9.45 269.17-6.28 267.32-3.1 264.1-1.33 260.87 0.45 256.77 0.45L256.77 0.45ZM255.27-22.15Q254.57-22.15 254.32-21.95 254.07-21.75 254.02-21.2L254.02-21.2Q253.47-10.05 253.47-5.55L253.47-5.55Q253.47-3.8 254.27-3.18 255.07-2.55 257.42-2.55L257.42-2.55Q261.27-2.55 263.35-5.08 265.42-7.6 265.42-12.35L265.42-12.35Q265.42-17.3 262.9-19.73 260.37-22.15 255.27-22.15L255.27-22.15ZM275.07 0.4L275.37-2Q277.22-2.35 277.82-3 278.42-3.65 278.42-5.3L278.42-5.3 278.47-20.55Q278.47-21.8 278.17-22.23 277.87-22.65 276.97-22.65L276.97-22.65 275.47-22.6 275.32-22.9 275.57-25.05Q276.47-25.05 277.22-25L277.22-25 281.02-24.95Q282.17-24.95 284.05-25.08 285.92-25.2 286.52-25.25L286.52-25.25 286.32-22.85Q284.72-22.65 284.19-22.25 283.67-21.85 283.57-20.7L283.57-20.7Q283.07-10.9 283.07-5L283.07-5Q283.07-3.4 283.39-2.85 283.72-2.3 284.72-2.3L284.72-2.3Q285.42-2.3 285.94-2.35 286.47-2.4 286.62-2.45L286.62-2.45 286.77-2.2 286.42 0.1Q285.77 0.1 284 0.05 282.22 0 280.52 0L280.52 0Q279.12 0 277.37 0.18 275.62 0.35 275.07 0.4L275.07 0.4ZM302.37 0.45Q301.72 0.35 299.69 0.18 297.67 0 296.27 0L296.27 0Q294.92 0 293.29 0.18 291.67 0.35 291.17 0.4L291.17 0.4 291.42-2.05Q293.22-2.35 293.84-3.05 294.47-3.75 294.47-5.35L294.47-5.35 294.47-20.55Q294.47-21.75 294.19-22.2 293.92-22.65 293.12-22.65L293.12-22.65Q292.72-22.65 292.32-22.6 291.92-22.55 291.77-22.55L291.77-22.55 291.57-22.85 291.92-25.05Q292.47-25.05 293.92-25 295.37-24.95 296.82-24.95L296.82-24.95Q298.62-24.95 300.57-25.03 302.52-25.1 303.27-25.15L303.27-25.15Q309.47-25.15 313.04-22.03 316.62-18.9 316.62-13.45L316.62-13.45Q316.62-9.45 314.77-6.28 312.92-3.1 309.69-1.33 306.47 0.45 302.37 0.45L302.37 0.45ZM300.87-22.15Q300.17-22.15 299.92-21.95 299.67-21.75 299.62-21.2L299.62-21.2Q299.07-10.05 299.07-5.55L299.07-5.55Q299.07-3.8 299.87-3.18 300.67-2.55 303.02-2.55L303.02-2.55Q306.87-2.55 308.94-5.08 311.02-7.6 311.02-12.35L311.02-12.35Q311.02-17.3 308.49-19.73 305.97-22.15 300.87-22.15L300.87-22.15ZM323.22 0.55Q321.67 0.55 320.84-0.35 320.01-1.25 320.01-2.65L320.01-2.65Q320.01-4.2 320.97-5.2 321.92-6.2 323.51-6.2L323.51-6.2Q325.06-6.2 325.92-5.3 326.76-4.4 326.76-2.95L326.76-2.95Q326.76-1.4 325.79-0.43 324.81 0.55 323.22 0.55L323.22 0.55ZM358.26 0.9Q354.91-9.2 349.51-24.45L349.51-24.45 349.16-24.45Q349.16-23.9 348.51-16.1L348.51-16.1Q347.66-4.85 347.66-4.2L347.66-4.2Q347.66-2.65 349.26-2.65L349.26-2.65 351.16-2.7 351.31-2.45 350.81 0.2 349.51 0.15Q345.91 0 345.51 0L345.51 0Q344.36 0 342.86 0.18 341.36 0.35 340.91 0.4L340.91 0.4 341.21-2.35Q342.71-2.5 343.39-3.3 344.06-4.1 344.31-6.1L344.31-6.1Q344.81-10.4 345.61-18.25 346.41-26.1 346.41-27L346.41-27Q346.41-28.35 345.51-28.93 344.61-29.5 342.36-29.65L342.36-29.65 342.16-29.95 342.56-32.2Q346.31-31.95 348.36-31.95L348.36-31.95Q348.71-31.95 351.56-32.1L351.56-32.1 352.66-32.15Q355.41-22.95 359.51-10.95L359.51-10.95 360.16-9.1 360.46-9.1Q361.06-10.85 361.41-11.85L361.41-11.85Q365.21-22.65 368.26-32.05L368.26-32.05Q368.86-32.05 369.31-32L369.31-32Q371.56-31.9 372.71-31.95L372.71-31.95Q373.81-31.95 375.76-32.1 377.71-32.25 378.01-32.25L378.01-32.25 378.16-32.05 377.86-29.7Q375.71-29.45 374.86-28.85 374.01-28.25 374.01-27L374.01-27Q374.01-25.65 374.46-18.93 374.91-12.2 375.31-7.3L375.31-7.3Q375.51-5.35 375.76-4.38 376.01-3.4 376.46-3.03 376.91-2.65 377.71-2.65L377.71-2.65Q378.16-2.65 378.61-2.7 379.06-2.75 379.11-2.75L379.11-2.75 379.26-2.5 378.81 0.15Q378.56 0.15 376.89 0.08 375.21 0 373.96 0L373.96 0Q372.16 0 370.06 0.2 367.96 0.4 367.86 0.4L367.86 0.4 368.16-2.35Q369.66-2.55 370.34-3.13 371.01-3.7 371.01-4.85L371.01-4.85Q371.01-5.45 370.71-9.65 370.41-13.85 370.21-16.5L370.21-16.5Q369.61-24.1 369.61-24.45L369.61-24.45 369.26-24.45Q363.76-9.2 360.46 0.5L360.46 0.5 358.26 0.9ZM383.46 0.4L383.76-2Q385.61-2.35 386.21-3 386.81-3.65 386.81-5.3L386.81-5.3 386.86-20.55Q386.86-21.8 386.56-22.23 386.26-22.65 385.36-22.65L385.36-22.65 383.86-22.6 383.71-22.9 383.96-25.05Q384.86-25.05 385.61-25L385.61-25 389.41-24.95Q390.56-24.95 392.43-25.08 394.31-25.2 394.91-25.25L394.91-25.25 394.71-22.85Q393.11-22.65 392.58-22.25 392.06-21.85 391.96-20.7L391.96-20.7Q391.46-10.9 391.46-5L391.46-5Q391.46-3.4 391.78-2.85 392.11-2.3 393.11-2.3L393.11-2.3Q393.81-2.3 394.33-2.35 394.86-2.4 395.01-2.45L395.01-2.45 395.16-2.2 394.81 0.1Q394.16 0.1 392.38 0.05 390.61 0 388.91 0L388.91 0Q387.51 0 385.76 0.18 384.01 0.35 383.46 0.4L383.46 0.4ZM406.76 0.45Q404.91 0.45 403.36 0.15 401.81-0.15 400.91-0.5 400.01-0.85 399.76-0.95L399.76-0.95 399.46-1.5Q399.51-1.75 399.63-2.65 399.76-3.55 399.91-5.1 400.06-6.65 400.06-8.15L400.06-8.15 403.01-8.4Q403.01-6.05 403.43-4.83 403.86-3.6 404.86-3.13 405.86-2.65 407.76-2.65L407.76-2.65Q409.91-2.65 411.21-3.53 412.51-4.4 412.51-5.9L412.51-5.9Q412.51-6.95 411.71-7.78 410.91-8.6 409.96-9.1 409.01-9.6 406.41-10.8L406.41-10.8Q403.26-12.3 401.56-13.83 399.86-15.35 399.86-17.8L399.86-17.8Q399.86-20 401.21-21.73 402.56-23.45 404.96-24.43 407.36-25.4 410.36-25.4L410.36-25.4Q412.11-25.4 413.61-25.2 415.11-25 416.01-24.78 416.91-24.55 417.16-24.45L417.16-24.45 417.41-23.95Q417.31-23.4 416.96-21.45 416.61-19.5 416.41-17.3L416.41-17.3 413.81-17.1 413.46-17.3Q413.46-17.4 413.48-17.82 413.51-18.25 413.51-18.85L413.51-18.85Q413.51-20.65 412.56-21.4 411.61-22.15 409.26-22.15L409.26-22.15Q407.41-22.15 406.16-21.28 404.91-20.4 404.91-19.1L404.91-19.1Q404.91-17.75 406.26-16.8 407.61-15.85 410.41-14.55L410.41-14.55Q412.81-13.45 414.26-12.58 415.71-11.7 416.76-10.4 417.81-9.1 417.81-7.3L417.81-7.3Q417.81-5 416.43-3.25 415.06-1.5 412.56-0.53 410.06 0.45 406.76 0.45L406.76 0.45ZM429.85 0.45Q428 0.45 426.45 0.15 424.9-0.15 424-0.5 423.1-0.85 422.85-0.95L422.85-0.95 422.55-1.5Q422.6-1.75 422.73-2.65 422.85-3.55 423-5.1 423.15-6.65 423.15-8.15L423.15-8.15 426.1-8.4Q426.1-6.05 426.53-4.83 426.95-3.6 427.95-3.13 428.95-2.65 430.85-2.65L430.85-2.65Q433-2.65 434.3-3.53 435.6-4.4 435.6-5.9L435.6-5.9Q435.6-6.95 434.8-7.78 434-8.6 433.05-9.1 432.1-9.6 429.5-10.8L429.5-10.8Q426.35-12.3 424.65-13.83 422.95-15.35 422.95-17.8L422.95-17.8Q422.95-20 424.3-21.73 425.65-23.45 428.05-24.43 430.45-25.4 433.45-25.4L433.45-25.4Q435.2-25.4 436.7-25.2 438.2-25 439.1-24.78 440-24.55 440.25-24.45L440.25-24.45 440.5-23.95Q440.4-23.4 440.05-21.45 439.7-19.5 439.5-17.3L439.5-17.3 436.9-17.1 436.55-17.3Q436.55-17.4 436.58-17.82 436.6-18.25 436.6-18.85L436.6-18.85Q436.6-20.65 435.65-21.4 434.7-22.15 432.35-22.15L432.35-22.15Q430.5-22.15 429.25-21.28 428-20.4 428-19.1L428-19.1Q428-17.75 429.35-16.8 430.7-15.85 433.5-14.55L433.5-14.55Q435.9-13.45 437.35-12.58 438.8-11.7 439.85-10.4 440.9-9.1 440.9-7.3L440.9-7.3Q440.9-5 439.53-3.25 438.15-1.5 435.65-0.53 433.15 0.45 429.85 0.45L429.85 0.45ZM475.4-8.35L475.3-20.95Q475.3-21.85 474.97-22.23 474.65-22.6 473.95-22.6L473.95-22.6 472.5-22.6 472.4-22.85 472.7-25.1Q473.25-25.05 474.67-25 476.1-24.95 477.55-24.95L477.55-24.95Q478.75-24.95 480.25-25.05 481.75-25.15 482.2-25.2L482.2-25.2 482-22.8Q480.55-22.6 479.95-22.05 479.35-21.5 479.3-20.3L479.3-20.3 478.75 0.65 475.4 1.15Q471.1-5.2 466.72-11.2 462.35-17.2 462.35-17.1L462.35-17.1 462-17.1 461.95-4.05Q461.95-3.05 462.25-2.68 462.55-2.3 463.3-2.3L463.3-2.3 465.15-2.35 465.4-2.2 464.95 0.15Q464.4 0.1 462.95 0.05 461.5 0 459.95 0L459.95 0Q458.7 0 457.22 0.13 455.75 0.25 455.3 0.3L455.3 0.3 455.6-2.1Q456.85-2.25 457.42-2.8 458-3.35 458.05-4.55L458.05-4.55 458.6-20.35Q458.6-21.6 457.9-22.08 457.2-22.55 455.2-22.8L455.2-22.8 454.9-23.1 455.25-25.15Q455.7-25.1 457.1-25.03 458.5-24.95 459.6-24.95L459.6-24.95Q460.85-24.95 461.85-25 462.85-25.05 463.2-25.1L463.2-25.1Q466.8-19.65 470.4-14.7 474-9.75 475.05-8.35L475.05-8.35 475.4-8.35ZM497.1 0.45Q493.55 0.45 490.9-1.05 488.25-2.55 486.82-5.3 485.4-8.05 485.4-11.75L485.4-11.75Q485.4-15.75 487.12-18.85 488.85-21.95 491.9-23.68 494.95-25.4 498.9-25.4L498.9-25.4Q504.35-25.4 507.55-22.15 510.75-18.9 510.75-13.3L510.75-13.3Q510.75-9.3 509-6.18 507.25-3.05 504.15-1.3 501.05 0.45 497.1 0.45L497.1 0.45ZM498.2-2.55Q501.4-2.55 503.3-4.9 505.2-7.25 505.2-11.35L505.2-11.35Q505.2-16.4 503.2-19.2 501.2-22 497.7-22L497.7-22Q494.55-22 492.72-19.68 490.9-17.35 490.9-13.25L490.9-13.25Q490.9-8.2 492.85-5.38 494.8-2.55 498.2-2.55L498.2-2.55ZM517.19 0.25L517.54-2.15Q519.49-2.3 520.32-2.65 521.14-3 521.39-3.78 521.64-4.55 521.64-6.4L521.64-6.4 521.64-22.3Q519.09-22.2 518.07-21.93 517.04-21.65 516.57-20.68 516.09-19.7 515.79-17.2L515.79-17.2 512.79-17.05Q512.89-17.75 513.09-20.23 513.29-22.7 513.34-25L513.34-25 513.74-25.4 517.64-25 530.44-25 534.39-25.4 534.84-25Q534.89-22.65 535.09-20.28 535.29-17.9 535.34-17.2L535.34-17.2 532.34-17.05Q531.99-19.65 531.54-20.65 531.09-21.65 530.14-21.93 529.19-22.2 526.79-22.3L526.79-22.3Q526.59-19.75 526.42-14.63 526.24-9.5 526.24-5.05L526.24-5.05Q526.24-3.6 526.77-3 527.29-2.4 528.54-2.4L528.54-2.4Q529.39-2.4 529.97-2.45 530.54-2.5 530.69-2.5L530.69-2.5 530.89-2.3 530.54 0.15Q529.79 0.15 527.74 0.08 525.69 0 523.74 0L523.74 0Q522.34 0 520.12 0.1 517.89 0.2 517.19 0.25L517.19 0.25ZM538.44 0.4L538.69-2Q540.54-2.3 541.14-2.98 541.74-3.65 541.74-5.3L541.74-5.3 541.79-20.55Q541.79-21.8 541.49-22.23 541.19-22.65 540.29-22.65L540.29-22.65 538.99-22.6 538.79-22.9 539.14-25.05Q539.64-25.05 541.07-25 542.49-24.95 543.94-24.95L543.94-24.95Q545.19-24.95 547.09-25.08 548.99-25.2 549.59-25.25L549.59-25.25 549.34-22.85Q548.19-22.65 547.72-22.4 547.24-22.15 547.07-21.63 546.89-21.1 546.84-19.9L546.84-19.9 546.59-14.15 552.39-14.1Q554.74-14.1 557.59-14.4L557.59-14.4 557.64-20.55Q557.64-21.8 557.34-22.23 557.04-22.65 556.14-22.65L556.14-22.65 554.79-22.6 554.64-22.9 554.94-25.05Q555.49-25 556.92-24.98 558.34-24.95 559.79-24.95L559.79-24.95Q560.99-24.95 562.94-25.08 564.89-25.2 565.49-25.25L565.49-25.25 565.29-22.9Q563.79-22.65 563.29-22.23 562.79-21.8 562.74-20.7L562.74-20.7Q562.54-17.3 562.39-12.68 562.24-8.05 562.24-5L562.24-5Q562.24-3.45 562.59-2.9 562.94-2.35 563.94-2.35L563.94-2.35Q564.49-2.35 564.94-2.4 565.39-2.45 565.54-2.45L565.54-2.45 565.74-2.2 565.34 0.1Q564.79 0.1 563.17 0.05 561.54 0 559.69 0L559.69 0 554.24 0.05 554.59-2.3Q556.39-2.3 556.99-3.05 557.59-3.8 557.59-6L557.59-6 557.59-11.2 552.59-11.25Q551.84-11.25 549.57-11.08 547.29-10.9 546.49-10.85L546.49-10.85 546.39-5Q546.39-3.4 546.72-2.85 547.04-2.3 548.04-2.3L548.04-2.3Q548.64-2.3 549.07-2.35 549.49-2.4 549.64-2.45L549.64-2.45 549.79-2.2 549.44 0.1Q548.94 0.1 547.59 0.05 546.24 0 544.89 0L544.89 0Q543.09 0 540.79 0.15 538.49 0.3 538.44 0.4L538.44 0.4ZM570.19 0.4L570.49-2Q572.34-2.35 572.94-3 573.54-3.65 573.54-5.3L573.54-5.3 573.59-20.55Q573.59-21.8 573.29-22.23 572.99-22.65 572.09-22.65L572.09-22.65 570.59-22.6 570.44-22.9 570.69-25.05Q571.59-25.05 572.34-25L572.34-25 576.14-24.95Q577.29-24.95 579.16-25.08 581.04-25.2 581.64-25.25L581.64-25.25 581.44-22.85Q579.84-22.65 579.31-22.25 578.79-21.85 578.69-20.7L578.69-20.7Q578.19-10.9 578.19-5L578.19-5Q578.19-3.4 578.51-2.85 578.84-2.3 579.84-2.3L579.84-2.3Q580.54-2.3 581.06-2.35 581.59-2.4 581.74-2.45L581.74-2.45 581.89-2.2 581.54 0.1Q580.89 0.1 579.11 0.05 577.34 0 575.64 0L575.64 0Q574.24 0 572.49 0.18 570.74 0.35 570.19 0.4L570.19 0.4ZM606.58-8.35L606.48-20.95Q606.48-21.85 606.16-22.23 605.83-22.6 605.13-22.6L605.13-22.6 603.68-22.6 603.58-22.85 603.88-25.1Q604.43-25.05 605.86-25 607.28-24.95 608.73-24.95L608.73-24.95Q609.93-24.95 611.43-25.05 612.93-25.15 613.38-25.2L613.38-25.2 613.18-22.8Q611.73-22.6 611.13-22.05 610.53-21.5 610.48-20.3L610.48-20.3 609.93 0.65 606.58 1.15Q602.28-5.2 597.91-11.2 593.53-17.2 593.53-17.1L593.53-17.1 593.18-17.1 593.13-4.05Q593.13-3.05 593.43-2.68 593.73-2.3 594.48-2.3L594.48-2.3 596.33-2.35 596.58-2.2 596.13 0.15Q595.58 0.1 594.13 0.05 592.68 0 591.13 0L591.13 0Q589.88 0 588.41 0.13 586.93 0.25 586.48 0.3L586.48 0.3 586.78-2.1Q588.03-2.25 588.61-2.8 589.18-3.35 589.23-4.55L589.23-4.55 589.78-20.35Q589.78-21.6 589.08-22.08 588.38-22.55 586.38-22.8L586.38-22.8 586.08-23.1 586.43-25.15Q586.88-25.1 588.28-25.03 589.68-24.95 590.78-24.95L590.78-24.95Q592.03-24.95 593.03-25 594.03-25.05 594.38-25.1L594.38-25.1Q597.98-19.65 601.58-14.7 605.18-9.75 606.23-8.35L606.23-8.35 606.58-8.35ZM628.78 0.45Q623.13 0.45 619.86-2.83 616.58-6.1 616.58-11.75L616.58-11.75Q616.58-15.95 618.36-19.03 620.13-22.1 623.43-23.75 626.73-25.4 631.18-25.4L631.18-25.4Q632.78-25.4 634.56-25.2 636.33-25 637.61-24.75 638.88-24.5 639.23-24.45L639.23-24.45 639.53-24.05Q639.48-23.8 639.26-22.85 639.03-21.9 638.78-20.35 638.53-18.8 638.43-17.05L638.43-17.05 635.03-16.8Q635.03-17 635.08-17.57 635.13-18.15 635.13-18.9L635.13-18.9Q635.13-20.6 633.98-21.3 632.83-22 630.18-22L630.18-22Q626.18-22 624.13-19.78 622.08-17.55 622.08-13.1L622.08-13.1Q622.08-8.2 624.13-5.5 626.18-2.8 629.78-2.8L629.78-2.8Q630.98-2.8 631.98-3.05 632.98-3.3 633.53-3.55 634.08-3.8 634.23-3.9L634.23-3.9 634.23-7.8Q634.23-9 633.86-9.38 633.48-9.75 632.28-9.75L632.28-9.75 629.93-9.75 629.78-10 630.18-12.6Q630.93-12.6 631.53-12.55L631.53-12.55 635.73-12.5Q636.98-12.5 638.18-12.58 639.38-12.65 639.73-12.7L639.73-12.7 639.98-11.3Q639.03-10.65 638.73-9.45 638.43-8.25 638.43-5L638.43-5Q638.43-2.85 638.68-1.6L638.68-1.6 638.38-1.15Q638.08-1 636.83-0.63 635.58-0.25 633.46 0.1 631.33 0.45 628.78 0.45L628.78 0.45ZM654.58 0.55L654.88-2.15Q657.18-2.6 657.95-3.48 658.73-4.35 658.73-6.45L658.73-6.45 658.78-26.65Q658.78-28.25 658.4-28.8 658.03-29.35 656.93-29.35L656.93-29.35 654.98-29.25 654.83-29.55 655.18-32.05 658.53-32Q659.63-31.95 661.58-31.95L661.58-31.95Q662.93-31.95 667.93-32.35L667.93-32.35 667.68-29.65Q665.68-29.4 664.98-28.83 664.28-28.25 664.23-26.85L664.23-26.85Q663.98-21.65 663.78-15.53 663.58-9.4 663.58-6.05L663.58-6.05Q663.58-4 663.98-3.33 664.38-2.65 665.63-2.65L665.63-2.65Q666.43-2.65 668.08-2.8L668.08-2.8 668.23-2.55 667.78 0.15Q666.83 0.15 666.28 0.1L666.28 0.1 660.88 0Q658.03 0 654.58 0.55L654.58 0.55ZM689.37 0.6Q688.82-1.55 686.87-8.43 684.92-15.3 683.22-20.3L683.22-20.3Q682.82-21.45 682.1-22.03 681.37-22.6 680.07-22.65L680.07-22.65 679.92-22.85 680.22-25.05Q680.77-25.05 682.22-25 683.67-24.95 685.12-24.95L685.12-24.95Q687.07-24.95 689.07-25.1 691.07-25.25 691.62-25.3L691.62-25.3 691.77-25 691.57-22.85Q689.52-22.65 688.95-22.4 688.37-22.15 688.37-21.35L688.37-21.35Q688.37-20.4 690.1-13.78 691.82-7.15 692.47-4.8L692.47-4.8 692.87-4.8Q694.17-8.05 696.52-15.25L696.52-15.25Q696.97-16.5 697.27-17.45 697.57-18.4 697.82-19.05L697.82-19.05 697.37-20.8Q697.07-21.8 696.35-22.2 695.62-22.6 694.12-22.65L694.12-22.65 693.97-22.85 694.27-25.05Q694.87-25.05 696.47-25 698.07-24.95 699.62-24.95L699.62-24.95Q701.42-24.95 703.45-25.1 705.47-25.25 706.07-25.3L706.07-25.3 706.27-25 706.07-22.85Q704.02-22.65 703.42-22.4 702.82-22.15 702.82-21.35L702.82-21.35Q702.82-20.45 704.55-13.83 706.27-7.2 706.92-4.8L706.92-4.8 707.42-4.8Q708.52-7.5 710.72-14.1 712.92-20.7 712.92-21.55L712.92-21.55Q712.92-22.2 712.42-22.45 711.92-22.7 710.62-22.7L710.62-22.7 708.92-22.7 708.77-22.95 709.07-25.2Q709.62-25.15 711.47-25.05 713.32-24.95 714.92-24.95L714.92-24.95Q716.47-24.95 717.75-25 719.02-25.05 719.47-25.05L719.47-25.05 719.17-22.65Q718.12-22.55 717.7-22.18 717.27-21.8 716.87-20.65L716.87-20.65 709.22-0.2 703.87 0.6Q703.72-0.45 702.52-4.73 701.32-9 699.82-13.95L699.82-13.95 699.52-13.95 694.72-0.2 689.37 0.6ZM722.17 0.4L722.47-2Q724.32-2.35 724.92-3 725.52-3.65 725.52-5.3L725.52-5.3 725.57-20.55Q725.57-21.8 725.27-22.23 724.97-22.65 724.07-22.65L724.07-22.65 722.57-22.6 722.42-22.9 722.67-25.05Q723.57-25.05 724.32-25L724.32-25 728.12-24.95Q729.27-24.95 731.14-25.08 733.02-25.2 733.62-25.25L733.62-25.25 733.42-22.85Q731.82-22.65 731.29-22.25 730.77-21.85 730.67-20.7L730.67-20.7Q730.17-10.9 730.17-5L730.17-5Q730.17-3.4 730.49-2.85 730.82-2.3 731.82-2.3L731.82-2.3Q732.52-2.3 733.04-2.35 733.57-2.4 733.72-2.45L733.72-2.45 733.87-2.2 733.52 0.1Q732.87 0.1 731.09 0.05 729.32 0 727.62 0L727.62 0Q726.22 0 724.47 0.18 722.72 0.35 722.17 0.4L722.17 0.4ZM738.47 0.4L738.77-2.05Q740.32-2.25 740.92-2.98 741.52-3.7 741.52-5.4L741.52-5.4 741.57-20.55Q741.57-21.8 741.27-22.23 740.97-22.65 740.07-22.65L740.07-22.65 738.77-22.6 738.57-22.9 738.87-25.05Q739.77-25.05 740.52-25L740.52-25 744.17-24.95Q745.27-24.95 747.27-25.08 749.27-25.2 749.92-25.25L749.92-25.25 749.62-22.75Q748.27-22.6 747.67-22.3 747.07-22 746.92-21.48 746.77-20.95 746.67-19.75L746.67-19.75Q746.17-13.45 746.17-5.25L746.17-5.25Q746.17-3.65 746.69-3.2 747.22-2.75 749.02-2.75L749.02-2.75Q751.17-2.75 752.22-3.18 753.27-3.6 753.79-4.8 754.32-6 754.72-8.6L754.72-8.6 757.67-8.9 757.87-8.55Q757.77-7.85 757.42-5.33 757.07-2.8 756.77-0.05L756.77-0.05 756.42 0.35Q755.27 0.3 751.57 0.15 747.87 0 745.02 0L745.02 0Q742.87 0 740.94 0.18 739.02 0.35 738.47 0.4L738.47 0.4ZM760.16 0.4L760.46-2.05Q762.01-2.25 762.61-2.98 763.21-3.7 763.21-5.4L763.21-5.4 763.26-20.55Q763.26-21.8 762.96-22.23 762.66-22.65 761.76-22.65L761.76-22.65 760.46-22.6 760.26-22.9 760.56-25.05Q761.46-25.05 762.21-25L762.21-25 765.86-24.95Q766.96-24.95 768.96-25.08 770.96-25.2 771.61-25.25L771.61-25.25 771.31-22.75Q769.96-22.6 769.36-22.3 768.76-22 768.61-21.48 768.46-20.95 768.36-19.75L768.36-19.75Q767.86-13.45 767.86-5.25L767.86-5.25Q767.86-3.65 768.39-3.2 768.91-2.75 770.71-2.75L770.71-2.75Q772.86-2.75 773.91-3.18 774.96-3.6 775.49-4.8 776.01-6 776.41-8.6L776.41-8.6 779.36-8.9 779.56-8.55Q779.46-7.85 779.11-5.33 778.76-2.8 778.46-0.05L778.46-0.05 778.11 0.35Q776.96 0.3 773.26 0.15 769.56 0 766.71 0L766.71 0Q764.56 0 762.64 0.18 760.71 0.35 760.16 0.4L760.16 0.4ZM787.21 0.55Q785.66 0.55 784.84-0.35 784.01-1.25 784.01-2.65L784.01-2.65Q784.01-4.2 784.96-5.2 785.91-6.2 787.51-6.2L787.51-6.2Q789.06-6.2 789.91-5.3 790.76-4.4 790.76-2.95L790.76-2.95Q790.76-1.4 789.79-0.43 788.81 0.55 787.21 0.55L787.21 0.55Z" opacity="1" transform="matrix(1,0,0,1,0,0)" fill="#096a2e" class="slogan-text-1" data-fill-palette-color="secondary" id="text-1"></path></svg></g></svg></g></svg></g></svg></g></svg></g></svg></g></svg></g><g><path d="M245.816 0c68.262 0 123.6 55.338 123.6 123.6 0 68.262-55.338 123.6-123.6 123.6-58.788 0-107.99-41.043-120.516-96.037h1.406c12.499 54.231 61.082 94.667 119.11 94.667 67.506 0 122.23-54.724 122.229-122.23 0-67.506-54.724-122.23-122.229-122.23-58.027 0-106.61 40.436-119.11 94.667l-1.406 0c12.525-54.995 61.727-96.037 120.516-96.037z" fill="#729343" stroke="transparent" data-fill-palette-color="tertiary"></path></g></svg></g><defs></defs></svg><rect width="395.52" height="247.2" fill="none" stroke="none" visibility="hidden"></rect></g></svg></g></svg>